<svg xmlns="http://www.w3.org/2000/svg" viewBox="0 0 200 60" width="200" height="60">
  <rect width="200" height="60" fill="white"/>
  <g transform="translate(10,5) scale(0.4)">
    <path d="M62.5 8.5L55 12.8v8.7l7.5 4.3 7.5-4.3v-8.7L62.5 8.5zm0 4.3l3.75 2.15v4.35L62.5 21.4l-3.75-2.15v-4.35L62.5 12.8z" fill="#29B5E8"/>
    <path d="M75 16.5l-7.5 4.3v8.7L75 33.8l7.5-4.3v-8.7L75 16.5zm0 4.3l3.75 2.15v4.35L75 29.4l-3.75-2.15v-4.35L75 20.8z" fill="#29B5E8"/>
    <path d="M50 16.5l-7.5 4.3v8.7L50 33.8l7.5-4.3v-8.7L50 16.5zm0 4.3l3.75 2.15v4.35L50 29.4l-3.75-2.15v-4.35L50 20.8z" fill="#29B5E8"/>
    <path d="M62.5 24.5L55 28.8v8.7l7.5 4.3 7.5-4.3v-8.7l-7.5-4.3zm0 4.3l3.75 2.15v4.35L62.5 37.4l-3.75-2.15v-4.35l3.75-2.1z" fill="#29B5E8"/>
    <path d="M62.5 0L55 4.3v8.7l7.5 4.3 7.5-4.3V4.3L62.5 0zm0 4.3l3.75 2.15v4.35L62.5 12.9l-3.75-2.15V6.4L62.5 4.3z" fill="#29B5E8"/>
    <path d="M87.5 8.5L80 12.8v8.7l7.5 4.3 7.5-4.3v-8.7L87.5 8.5zm0 4.3l3.75 2.15v4.35L87.5 21.4l-3.75-2.15v-4.35l3.75-2.1z" fill="#29B5E8"/>
    <path d="M37.5 8.5L30 12.8v8.7l7.5 4.3 7.5-4.3v-8.7L37.5 8.5zm0 4.3l3.75 2.15v4.35L37.5 21.4l-3.75-2.15v-4.35l3.75-2.1z" fill="#29B5E8"/>
  </g>
  <text x="65" y="40" font-family="Arial, sans-serif" font-size="18" font-weight="bold" fill="#29B5E8">snowflake</text>
</svg>
